<svg width="31" height="19" viewBox="0 0 31 19" fill="none" xmlns="http://www.w3.org/2000/svg">
<path d="M16.6547 0.193182L29.414 0.193182C29.5823 0.193182 29.7188 0.518819 29.7188 0.920455C29.7188 1.32209 29.5823 1.64773 29.414 1.64773L16.6547 1.64773C16.4864 1.64773 16.35 1.32209 16.35 0.920455C16.35 0.518819 16.4864 0.193182 16.6547 0.193182Z" fill="black"/>
<path d="M7.61028 8.64773L29.2031 8.64773C29.4879 8.64773 29.7188 8.97336 29.7188 9.375C29.7188 9.77664 29.4879 10.1023 29.2031 10.1023L7.61028 10.1023C7.32552 10.1023 7.09464 9.77664 7.09464 9.375C7.09464 8.97336 7.32552 8.64773 7.61028 8.64773Z" fill="black"/>
<path d="M1.58071 17.1023L29.0625 17.1023C29.4249 17.1023 29.7188 17.4279 29.7188 17.8295C29.7188 18.2312 29.4249 18.5568 29.0625 18.5568L1.58071 18.5568C1.21827 18.5568 0.924423 18.2312 0.924423 17.8295C0.924423 17.4279 1.21827 17.1023 1.58071 17.1023Z" fill="black"/>
</svg>
