<svg width="12" height="12" viewBox="0 0 12 12" fill="none" xmlns="http://www.w3.org/2000/svg">
<path d="M5.20023 1.57979C5.94586 1.57911 6.67494 1.79932 7.29524 2.21256C7.91554 2.6258 8.39919 3.21351 8.685 3.90134C8.97081 4.58917 9.04594 5.34621 8.9009 6.07669C8.75585 6.80718 8.39714 7.47829 7.87014 8.00512C7.34314 8.53195 6.67153 8.89083 5.94028 9.03637C5.20903 9.1819 4.45098 9.10755 3.76205 8.82272C3.07311 8.53789 2.48423 8.05538 2.06991 7.43622C1.65559 6.81706 1.43444 6.08908 1.43444 5.34437C1.43896 4.34793 1.83706 3.39353 2.5422 2.68861C3.24735 1.98369 4.20256 1.58521 5.20023 1.57979ZM5.20023 0.875C4.31518 0.875 3.45001 1.13712 2.71412 1.62822C1.97822 2.11933 1.40467 2.81735 1.06597 3.63402C0.727281 4.45069 0.638663 5.34933 0.811327 6.2163C0.983992 7.08327 1.41018 7.87964 2.03601 8.50469C2.66183 9.12975 3.45918 9.55541 4.32722 9.72786C5.19527 9.90032 6.09502 9.81181 6.91269 9.47353C7.73037 9.13525 8.42925 8.5624 8.92096 7.82742C9.41267 7.09244 9.67512 6.22833 9.67512 5.34437C9.67512 4.15902 9.20366 3.02222 8.36445 2.18405C7.52525 1.34588 6.38704 0.875 5.20023 0.875Z" fill="#072F53"/>
<path d="M11.7008 11.2886L9.16384 8.73765L8.67505 9.22241L11.212 11.7734C11.2438 11.8054 11.2817 11.8309 11.3234 11.8483C11.3652 11.8658 11.4099 11.8748 11.4551 11.875C11.5004 11.8752 11.5452 11.8664 11.587 11.8493C11.6289 11.8321 11.6669 11.8069 11.699 11.7751C11.7311 11.7433 11.7566 11.7054 11.7741 11.6638C11.7916 11.6221 11.8006 11.5774 11.8008 11.5322C11.8009 11.4871 11.7922 11.4423 11.775 11.4005C11.7579 11.3587 11.7326 11.3207 11.7008 11.2886Z" fill="#072F53"/>
</svg>
