<svg width="13" height="16" viewBox="0 0 13 16" fill="none" xmlns="http://www.w3.org/2000/svg">
<path d="M11.4762 0.59221H3.53636V5.35181H2.95469C2.95151 5.29123 2.94553 5.22707 2.94513 5.16331C2.94473 3.58195 2.94434 2.001 2.94513 0.419648C2.94513 0.0892699 3.03597 0.000797053 3.37461 0.000797053C6.35587 0 9.33752 0 12.3192 0C12.6411 0 12.7363 0.0948493 12.7363 0.412076C12.7363 4.44476 12.7347 8.47785 12.7399 12.5105C12.7399 12.7309 12.6638 12.864 12.4809 12.9796C10.9606 13.9401 9.44469 14.9081 7.92757 15.8733C7.88853 15.8984 7.84988 15.9243 7.80924 15.9466C7.57259 16.0758 7.36144 15.963 7.35427 15.6904C7.34431 15.2919 7.35028 14.8933 7.34988 14.4944C7.34988 14.0624 7.34988 13.6308 7.34988 13.1988C7.34988 13.1203 7.34988 13.0422 7.34988 12.9401C7.2475 12.9401 7.16981 12.9401 7.09252 12.9401C5.85069 12.9401 4.60887 12.9409 3.36744 12.9413C3.03198 12.9413 2.94473 12.8541 2.94434 12.5185C2.94434 10.9308 2.94434 9.34265 2.94434 7.75492V7.52856H3.51883V12.3428H7.33674C7.34112 12.2547 7.34909 12.1646 7.34909 12.0746C7.34988 9.23784 7.35387 6.40073 7.34471 3.56402C7.34391 3.28904 7.43753 3.13162 7.6698 2.99094C8.89569 2.24849 10.1116 1.49009 11.3311 0.736875C11.3857 0.703 11.4371 0.664343 11.4901 0.627679C11.4853 0.615723 11.4805 0.603767 11.4762 0.59221ZM12.153 0.925378C12.0618 0.974795 12.004 1.00309 11.9495 1.03657C10.6682 1.82804 9.38852 2.6219 8.10406 3.4086C7.96821 3.49189 7.91881 3.58315 7.91881 3.74136C7.92279 7.47476 7.92199 11.2078 7.92239 14.9411C7.92239 15.0085 7.93076 15.0759 7.93713 15.1679C8.01721 15.1225 8.06343 15.0986 8.10765 15.0707C9.40684 14.2449 10.704 13.4168 12.0064 12.5958C12.1355 12.5145 12.1546 12.4189 12.1546 12.2842C12.1522 8.59063 12.1526 4.89749 12.153 1.20395C12.153 1.12464 12.153 1.04533 12.153 0.925378Z" fill="#131313"/>
<path d="M0.996978 6.18233C1.12367 6.18233 1.19618 6.18233 1.26869 6.18233C2.84916 6.18233 4.43002 6.18233 6.01049 6.18233C6.07025 6.18233 6.13081 6.17755 6.18977 6.18552C6.34794 6.20744 6.44595 6.2995 6.45391 6.45971C6.46188 6.62231 6.36587 6.71995 6.21328 6.75581C6.14993 6.77096 6.08141 6.76418 6.01487 6.76458C4.44078 6.76458 2.86708 6.76458 1.29299 6.76458C1.2157 6.76458 1.13841 6.76458 1.0169 6.76458C1.0922 6.85066 1.13522 6.90526 1.18383 6.95468C1.5153 7.29024 1.84877 7.6234 2.17944 7.96016C2.3404 8.12395 2.35275 8.28376 2.22247 8.41328C2.09976 8.53483 1.92048 8.51889 1.76709 8.36506C1.21291 7.81071 0.659928 7.25517 0.108139 6.69842C-0.0380753 6.55097 -0.0360832 6.37721 0.114513 6.22617C0.663514 5.6762 1.21371 5.12704 1.7651 4.57946C1.92088 4.42483 2.09817 4.40889 2.22207 4.53044C2.35314 4.65956 2.34159 4.82017 2.17984 4.98357C1.84359 5.32391 1.50415 5.66066 1.1663 5.99941C1.12088 6.04484 1.07825 6.09386 0.996978 6.18154V6.18233Z" fill="#131313"/>
<path d="M8.79338 8.44001C8.79338 8.21484 8.789 7.98928 8.79457 7.76411C8.79896 7.58517 8.9141 7.46402 9.06868 7.45884C9.22963 7.45366 9.35752 7.57999 9.35951 7.76769C9.36429 8.21165 9.36429 8.65561 9.35832 9.09957C9.35592 9.29086 9.25194 9.39408 9.08461 9.39767C8.90852 9.40165 8.79896 9.29405 8.79378 9.09558C8.7878 8.87719 8.79258 8.6584 8.79258 8.43961H8.79338V8.44001Z" fill="#131313"/>
</svg>
