<svg width="22" height="22" viewBox="0 0 22 22" fill="none" xmlns="http://www.w3.org/2000/svg">
<path d="M8.94977 1.40957C10.441 1.40821 11.8992 1.84863 13.1398 2.67512C14.3804 3.50161 15.3477 4.67703 15.9193 6.05268C16.4909 7.42834 16.6412 8.94242 16.3511 10.4034C16.061 11.8644 15.3436 13.2066 14.2896 14.2602C13.2356 15.3139 11.8924 16.0317 10.4299 16.3227C8.96737 16.6138 7.45128 16.4651 6.07341 15.8954C4.69553 15.3258 3.51778 14.3608 2.68914 13.1224C1.8605 11.8841 1.4182 10.4282 1.4182 8.93874C1.42724 6.94585 2.22343 5.03706 3.63372 3.62721C5.04401 2.21737 6.95443 1.42042 8.94977 1.40957ZM8.94977 0C7.17968 0 5.44933 0.524248 3.97755 1.50645C2.50577 2.48865 1.35865 3.88469 0.681265 5.51803C0.00387792 7.15137 -0.173358 8.94866 0.171971 10.6826C0.5173 12.4165 1.36968 14.0093 2.62133 15.2594C3.87298 16.5095 5.46767 17.3608 7.20376 17.7057C8.93985 18.0506 10.7393 17.8736 12.3747 17.1971C14.0101 16.5205 15.4078 15.3748 16.3912 13.9048C17.3746 12.4349 17.8995 10.7067 17.8995 8.93874C17.8995 6.56804 16.9566 4.29444 15.2782 2.6181C13.5998 0.941758 11.3234 0 8.94977 0Z" fill="#072F53"/>
<path d="M21.8031 20.8273L16.7293 15.7253L15.7517 16.6948L20.8255 21.7968C20.8893 21.8609 20.965 21.9118 21.0485 21.9467C21.1319 21.9816 21.2214 21.9997 21.3119 22C21.4024 22.0003 21.492 21.9828 21.5757 21.9486C21.6594 21.9143 21.7355 21.8639 21.7997 21.8002C21.8639 21.7366 21.9149 21.6609 21.9498 21.5775C21.9847 21.4942 22.0028 21.4048 22.0032 21.3144C22.0035 21.2241 21.986 21.1346 21.9517 21.051C21.9173 20.9674 21.8669 20.8914 21.8031 20.8273Z" fill="#072F53"/>
</svg>
